<svg xmlns="http://www.w3.org/2000/svg" version="1.1" xmlns:xlink="http://www.w3.org/1999/xlink" xmlns:svgjs="http://svgjs.dev/svgjs" width="100%" height="100%" viewBox="0 0 1000 600"><rect width="1000" height="600" x="0" y="0" fill="#000000"/><g><rect width="333.3333333333333" height="333.3333333333333" rx="13.333333333333334" ry="13.333333333333334" y="319.75207127400313" fill="#250ac8" transform="matrix(0.42012592188037157,0,0,0.42012592188037157,0,95.64288006252626)" x="297.5298461914062"/><path d="M421.94876689107065 561.4187460402475L395.61656643348 561.4187460402475L365.4011458868797 504.6727123307787Q356.01905939445504 505.09788241351697 348.6777892991741 505.09788241351697L348.6777892991741 505.09788241351697L342.9521655182986 505.09788241351697L342.9521655182986 561.4187460402475L320.72994252717797 561.4187460402475L320.72994252717797 411.41874085018304L354.8002384906053 411.41874085018304Q380.7072688654577 411.41874085018304 397.45897012534584 422.1330269351876Q414.1823267130515 432.84731302019225 414.1823267130515 456.94028437536133L414.1823267130515 456.94028437536133Q414.1823267130515 472.01964997647895 407.1528480117786 482.96069343894396Q400.0950246383232 493.87339222922645 386.2344799410553 499.7974287153798L386.2344799410553 499.7974287153798L421.94876689107065 561.4187460402475ZM342.9521655182986 486.5321221339455L357.4646376757652 486.5321221339455Q377.44763156446425 486.5321221339455 384.90228034847536 477.8586524460846Q392.3569291324865 469.18518275822373 392.3569291324865 457.1386970806392L392.3569291324865 457.1386970806392Q392.3569291324865 430.4096712124928 356.64264218247115 430.4096712124928L356.64264218247115 430.4096712124928L342.9521655182986 430.4096712124928L342.9521655182986 486.5321221339455ZM519.90795395397 561.4187460402475L483.7684969212163 491.4074057493444L474.38641042879163 470.2055909567956L470.1063649292263 491.4074057493444L456.2174755597759 561.4187460402475L433.57008248591694 561.4187460402475L464.6074985258112 411.41874085018304L467.0451403335107 411.41874085018304L508.2582936869411 492.42781394791626L520.5031920698036 519.5820098988011L532.748090452666 492.42781394791626L573.1675929849848 411.41874085018304L575.4068220874065 411.41874085018304L607.6630590311504 561.4187460402475L585.2140786625694 561.4187460402475L570.1063683892694 491.4074057493444L565.6279101844261 470.2055909567956L557.4646445958513 491.4074057493444L521.1267748578196 561.4187460402475L519.90795395397 561.4187460402475Z " fill="#000000" transform="matrix(0.42012592188037157,0,0,0.42012592188037157,0,95.64288006252626)"/><path d="M814.0566906231807 559.4053197849462L788.0779431239978 559.4053197849462L758.2680993843542 503.4209791031764Q749.0119471537519 503.8404421951976 741.7692177648515 503.8404421951976L741.7692177648515 503.8404421951976L736.120448125632 503.8404421951976L736.120448125632 559.4053197849462L714.1965105159879 559.4053197849462L714.1965105159879 411.41874091984846L747.8094862899576 411.41874091984846Q773.3687706971192 411.41874091984846 789.8956165227565 421.989210838784Q806.3944981422591 432.55968075771955 806.3944981422591 456.32925597225716L806.3944981422591 456.32925597225716Q806.3944981422591 471.2062136359442 799.4593750208411 482.0003972039578Q792.4962876932883 492.7666165658366 778.8217908933955 498.61113564799933L778.8217908933955 498.61113564799933L814.0566906231807 559.4053197849462ZM736.120448125632 485.5238871769363L750.4381216666242 485.5238871769363Q770.152886991623 485.5238871769363 777.5074732050622 476.9668400997028Q784.8620594185015 468.4097930224692 784.8620594185015 456.5250054152004L784.8620594185015 456.5250054152004Q784.8620594185015 430.15475903013106 749.6271596887163 430.15475903013106L749.6271596887163 430.15475903013106L736.120448125632 430.15475903013106L736.120448125632 485.5238871769363ZM879.2971835355527 561.418742626648Q862.7703377099153 561.418742626648 851.6965120805544 554.8751183911165Q840.6226864511933 548.331494155585 835.393379903995 537.3695253507631Q830.1640733567967 526.3795923398063 830.1640733567967 513.2923438687433L830.1640733567967 513.2923438687433Q830.1640733567967 498.61113564799933 836.288234500307 487.5373100186383Q842.4403598499521 476.46348438927726 853.3184360363698 470.50710848257546Q864.1965122227876 464.5786967820085 877.8710090226805 464.5786967820085L877.8710090226805 464.5786967820085Q899.2076983034948 464.5786967820085 909.582418779487 476.35162756473824Q919.9571392554794 488.12455834746805 919.9571392554794 509.4612476282824L919.9571392554794 509.4612476282824Q919.9571392554794 514.9142678245587 919.341926720515 520.7587869067215L919.341926720515 520.7587869067215L852.8989729443485 520.7587869067215Q855.1361094351287 533.0350733998768 861.6797336706602 538.4601293900182Q868.2233579061917 543.9131495862946 879.8844318643825 543.9131495862946L879.8844318643825 543.9131495862946Q889.560047187006 543.9131495862946 895.7960651550553 542.2912256304791Q902.0320831231046 540.6693016746635 907.2613896703028 537.8728810611885L907.2613896703028 537.8728810611885L913.9168707303734 553.3650512598401Q908.8833136261184 556.5809349653364 900.2144097243458 559.0138208990596Q891.573470028708 561.418742626648 879.2971835355527 561.418742626648L879.2971835355527 561.418742626648ZM852.8989729443485 505.6581155939564L898.8161994176083 505.6581155939564Q899.0119488605516 493.15811545172306 893.3911434274668 488.0406657290638Q887.7423737882473 482.8952518002698 877.2837606938507 482.8952518002698L877.2837606938507 482.8952518002698Q856.1428208559796 482.8952518002698 852.8989729443485 505.6581155939564L852.8989729443485 505.6581155939564ZM942.720003049166 559.4053197849462L942.720003049166 466.98361850959697L964.0566923299804 466.98361850959697L964.2524417729236 483.9019632211208Q968.0835380133844 475.45677296842626 976.3329788231356 470.00375277215Q984.582419632887 464.5786967820085 995.6562452622479 464.5786967820085L995.6562452622479 464.5786967820085Q1009.9459545971054 464.5786967820085 1017.6081470780268 470.50710848257546Q1025.2703395589483 476.46348438927726 1027.87101072948 487.11784692661706Q1030.4996461061469 497.8001736700916 1030.4996461061469 514.9142678245587L1030.4996461061469 514.9142678245587L1030.4996461061469 559.4053197849462L1008.743493733311 559.4053197849462L1008.743493733311 515.5015161533884Q1008.743493733311 497.99592311303485 1005.3318605848715 490.24983801370905Q1001.8922632302972 482.50375291438326 991.2379006929575 482.50375291438326L991.2379006929575 482.50375291438326Q985.1976321678515 482.50375291438326 978.9616141998022 486.22299233030503Q972.6976320256181 489.9422317462268 968.5868937238099 496.98921169218386Q964.4481912158669 504.0361916381409 964.4481912158669 513.4880933116865L964.4481912158669 513.4880933116865L964.4481912158669 559.4053197849462L942.720003049166 559.4053197849462ZM1099.3475216099014 561.418742626648Q1086.8754856738028 561.418742626648 1076.3050157548673 555.4903309260811Q1065.7345458359318 549.5339550193794 1059.3866710433435 538.5719862145572Q1053.0387962507552 527.5820532036005 1053.0387962507552 512.9008449828566L1053.0387962507552 512.9008449828566Q1053.0387962507552 498.38742199892135 1058.575709065436 487.5373100186383Q1064.1126218801164 476.65923383222054 1074.3754855315697 470.6189653071145Q1084.6663133891575 464.5786967820085 1098.536559631994 464.5786967820085L1098.536559631994 464.5786967820085Q1106.5902509988018 464.5786967820085 1113.6372309447588 467.4030816016182Q1120.6842108907158 470.1995022150932 1125.522018552028 474.33820472303626Q1130.3598262133396 478.4769072309793 1131.981750169155 482.50375291438326L1131.981750169155 482.50375291438326L1132.3732490550415 466.98361850959697L1153.122690007026 466.98361850959697L1153.122690007026 559.4053197849462L1132.568998497985 559.4053197849462L1132.177499612098 543.1021876083869Q1128.7379022575242 550.3449169972871 1119.6774994698649 555.8818298119677Q1110.617096682206 561.418742626648 1099.3475216099014 561.418742626648L1099.3475216099014 561.418742626648ZM1102.9828684074191 543.2979370513301Q1114.4481929226667 543.2979370513301 1122.3061348465312 535.356102509061Q1130.1640767703962 527.3863037606573 1130.1640767703962 514.4948047325374L1130.1640767703962 514.4948047325374L1130.1640767703962 513.0965944257999Q1130.1640767703962 504.4276905240274 1126.5287299728789 497.60442422714834Q1122.9213473814957 490.7531937241346 1116.657365207312 486.9220974836738Q1110.4213472392626 483.09100124321304 1102.9828684074191 483.09100124321304L1102.9828684074191 483.09100124321304Q1090.091369379299 483.09100124321304 1083.044389433342 491.4522988775033Q1075.997409487385 499.8135965117936 1075.997409487385 513.0965944257999L1075.997409487385 513.0965944257999Q1075.997409487385 526.5753417827495 1082.9325326088033 534.9366394170397Q1089.895619936356 543.2979370513301 1102.9828684074191 543.2979370513301L1102.9828684074191 543.2979370513301ZM1190.3710125785133 559.4053197849462L1190.3710125785133 484.7129251990286L1174.0399161958194 484.7129251990286L1174.0399161958194 466.98361850959697L1190.3710125785133 466.98361850959697L1190.3710125785133 429.3437970522233L1212.2949501881571 424.5059893909115L1212.2949501881571 466.98361850959697L1233.6596036751062 466.98361850959697L1233.6596036751062 484.7129251990286L1212.2949501881571 484.7129251990286L1212.2949501881571 559.4053197849462L1190.3710125785133 559.4053197849462ZM1294.4537878120532 561.418742626648Q1280.1640784771957 561.418742626648 1269.090252847835 554.9869752156555Q1258.0164272184738 548.5272435985283 1251.9761586933678 537.4534179691673Q1245.9358901682617 526.3795923398063 1245.9358901682617 512.9008449828566L1245.9358901682617 512.9008449828566Q1245.9358901682617 499.6178470688504 1251.8643018688285 488.5440214394893Q1257.8206777755304 477.47019581012825 1268.8945034048916 471.010464193001Q1279.9683290342527 464.5786967820085 1294.4537878120532 464.5786967820085L1294.4537878120532 464.5786967820085Q1308.9392465898536 464.5786967820085 1319.9291796008106 471.010464193001Q1330.8911484056325 477.47019581012825 1336.847524312334 488.5440214394893Q1342.7759360129012 499.6178470688504 1342.7759360129012 512.9008449828566L1342.7759360129012 512.9008449828566Q1342.7759360129012 526.3795923398063 1336.7356674877951 537.4534179691673Q1330.695398962689 548.5272435985283 1319.7334301578671 554.9869752156555Q1308.7434971469106 561.418742626648 1294.4537878120532 561.418742626648L1294.4537878120532 561.418742626648ZM1295.0690003470177 543.6894359372166Q1306.7300743052083 543.6894359372166 1313.469447983683 535.0484962415787Q1320.2367858682928 526.3795923398063 1320.2367858682928 513.2923438687433L1320.2367858682928 513.2923438687433Q1320.2367858682928 500.2050953976801 1312.9660922732578 491.2565494345601Q1305.7233628843574 482.2800392653053 1293.8385752770887 482.2800392653053L1293.8385752770887 482.2800392653053Q1282.373250761841 482.2800392653053 1275.4381276404229 491.1446926100211Q1268.4750403128705 500.00934595473683 1268.4750403128705 513.2923438687433L1268.4750403128705 513.2923438687433Q1268.4750403128705 526.183842896863 1275.9414833508486 534.9366394170397Q1283.379962182692 543.6894359372166 1295.0690003470177 543.6894359372166L1295.0690003470177 543.6894359372166ZM1490.3710159921125 559.4053197849462L1454.716653170306 490.3337306321133L1445.4605009397037 469.4165044433202L1441.2379058133565 490.3337306321133L1427.5354448073285 559.4053197849462L1405.1920441056636 559.4053197849462L1435.7848856170804 411.41874091984846L1438.2177715508033 411.41874091984846L1478.8777272707298 491.3404420529643L1490.958264320942 518.130151530055L1503.038801371154 491.3404420529643L1542.915759319308 411.41874091984846L1545.124931603953 411.41874091984846L1576.9481981852987 559.4053197849462L1554.8005469265768 559.4053197849462L1539.8956250567549 490.3337306321133L1535.4493162813296 469.4165044433202L1527.3956249145217 490.3337306321133L1491.5734768559068 559.4053197849462L1490.3710159921125 559.4053197849462ZM1636.3441720155079 561.418742626648Q1623.8441718732747 561.418742626648 1613.2737019543392 555.4903309260811Q1602.7032320354037 549.5339550193794 1596.3553572428154 538.5719862145572Q1590.0354466563617 527.5820532036005 1590.0354466563617 512.9008449828566L1590.0354466563617 512.9008449828566Q1590.0354466563617 498.38742199892135 1595.5723594710425 487.5373100186383Q1601.109272285723 476.65923383222054 1611.3721359371762 470.6189653071145Q1621.6349995886294 464.5786967820085 1635.5332100376004 464.5786967820085L1635.5332100376004 464.5786967820085Q1643.5869014044083 464.5786967820085 1650.6338813503653 467.4030816016182Q1657.6808612963223 470.1995022150932 1662.518668957634 474.33820472303626Q1667.328512412811 478.4769072309793 1668.950436368627 482.50375291438326L1668.950436368627 482.50375291438326L1669.3419352545134 466.98361850959697L1690.091376206498 466.98361850959697L1690.091376206498 559.4053197849462L1669.565648903591 559.4053197849462L1669.14618581157 543.1021876083869Q1665.7345526631302 550.3449169972871 1656.6741498754714 555.8818298119677Q1647.6137470878125 561.418742626648 1636.3441720155079 561.418742626648L1636.3441720155079 561.418742626648ZM1639.951554606891 543.2979370513301Q1651.4448433282728 543.2979370513301 1659.2748210460031 535.356102509061Q1667.132762969868 527.3863037606573 1667.132762969868 514.4948047325374L1667.132762969868 514.4948047325374L1667.132762969868 513.0965944257999Q1667.132762969868 504.4276905240274 1663.5253803784854 497.60442422714834Q1659.8900335809676 490.7531937241346 1653.654015612918 486.9220974836738Q1647.417997644869 483.09100124321304 1639.951554606891 483.09100124321304L1639.951554606891 483.09100124321304Q1627.060055578771 483.09100124321304 1620.013075632814 491.4522988775033Q1612.966095686857 499.8135965117936 1612.966095686857 513.0965944257999L1612.966095686857 513.0965944257999Q1612.966095686857 526.5753417827495 1619.9291830144098 534.9366394170397Q1626.864306135828 543.2979370513301 1639.951554606891 543.2979370513301L1639.951554606891 543.2979370513301ZM1727.3396987779852 559.4053197849462L1727.3396987779852 484.7129251990286L1711.0365666014254 484.7129251990286L1711.0365666014254 466.98361850959697L1727.3396987779852 466.98361850959697L1727.3396987779852 429.3437970522233L1749.2916005937636 424.5059893909115L1749.2916005937636 466.98361850959697L1770.628289874578 466.98361850959697L1770.628289874578 484.7129251990286L1749.2916005937636 484.7129251990286L1749.2916005937636 559.4053197849462L1727.3396987779852 559.4053197849462ZM1820.1528989392204 561.418742626648Q1810.5052478227317 561.418742626648 1800.1305273467392 558.9019640745207Q1789.7558068707472 556.3851855223932 1785.337462301457 552.9735523739537L1785.337462301457 552.9735523739537L1792.580191690357 535.8594582194864Q1804.660728740569 544.304648472181 1820.1528989392204 544.304648472181L1820.1528989392204 544.304648472181Q1835.6730333440069 544.304648472181 1835.6730333440069 535.244245684522L1835.6730333440069 535.244245684522Q1835.6730333440069 531.217400001118 1832.429185432376 529.0082277164727Q1829.2133017268798 526.7990554318276 1820.9638609171284 523.7789211692746L1820.9638609171284 523.7789211692746L1813.301668436207 520.9545363496647Q1801.2211313859948 516.1167286883529 1794.1741514400378 509.37735500987816Q1787.1271714940808 502.6379813314034 1787.1271714940808 491.56415570204234L1787.1271714940808 491.56415570204234Q1787.1271714940808 478.86840611686574 1797.1103930841864 471.70956934636973Q1807.0656504681574 464.5786967820085 1823.7882457367382 464.5786967820085L1823.7882457367382 464.5786967820085Q1832.0376865464896 464.5786967820085 1839.9795210887582 466.39637018076724Q1847.949319837162 468.18607937339124 1852.1719149635096 471.010464193001L1852.1719149635096 471.010464193001L1844.3139730396447 488.3203077904113Q1841.713301869113 485.71963661987957 1835.9526754053545 483.7901063965818Q1830.2200131477302 481.88854037941877 1823.1730332017737 481.88854037941877L1823.1730332017737 481.88854037941877Q1808.8833238669163 481.88854037941877 1808.8833238669163 490.5574442811913L1808.8833238669163 490.5574442811913Q1808.8833238669163 495.3672877363683 1812.714420107377 497.88406628849583Q1816.5455163478377 500.4008448406234 1825.1864560434756 503.4209791031764L1825.1864560434756 503.4209791031764Q1825.9974180213835 503.6446927522544 1831.4224740115246 505.6581155939564L1831.4224740115246 505.6581155939564Q1844.3139730396447 510.6916726982114 1850.5499910076942 517.123440109204Q1856.8139731818778 523.5552075201965 1856.8139731818778 533.6223217287065L1856.8139731818778 533.6223217287065Q1856.8139731818778 547.3247827347341 1846.4392527058858 554.3717626806911Q1836.0645322298933 561.418742626648 1820.1528989392204 561.418742626648L1820.1528989392204 561.418742626648ZM1911.3721393507753 561.418742626648Q1892.2446223546062 561.418742626648 1885.0857855841105 550.1491675543439Q1877.9549130197488 538.8795924820395 1877.9549130197488 518.7453640650194L1877.9549130197488 518.7453640650194L1877.9549130197488 466.98361850959697L1899.6831011864501 466.98361850959697L1899.6831011864501 513.2923438687433Q1899.6831011864501 524.7856325901255 1900.9974188747833 531.105543176579Q1902.3117365631165 537.4534179691673 1906.2267254219814 540.4735522317203Q1910.1696784869814 543.4936864942733 1917.9996562047113 543.4936864942733L1917.9996562047113 543.4936864942733Q1923.648425843931 543.4936864942733 1928.877732391129 540.2778027887771Q1934.1070389383272 537.0619190832808 1937.4347794683626 531.5250062686002Q1940.7625199983977 525.9880934539196 1940.7625199983977 519.3326123938492L1940.7625199983977 519.3326123938492L1940.7625199983977 466.98361850959697L1962.2949587221556 466.98361850959697L1962.2949587221556 559.4053197849462L1944.5936162388589 559.4053197849462L1942.1607303051355 545.9265724279966Q1937.1271732008804 553.7565501457266 1929.5768375444977 557.5876463861873Q1922.0265018881155 561.418742626648 1911.3721393507753 561.418742626648L1911.3721393507753 561.418742626648ZM2034.3866821375414 561.418742626648Q2020.096972802684 561.418742626648 2009.0231471733232 554.9869752156555Q1997.949321543962 548.5272435985283 1991.909053018856 537.4534179691673Q1985.86878449375 526.3795923398063 1985.86878449375 512.9008449828566L1985.86878449375 512.9008449828566Q1985.86878449375 499.6178470688504 1991.7971961943167 488.5440214394893Q1997.7535721010186 477.47019581012825 2008.8273977303797 471.010464193001Q2019.901223359741 464.5786967820085 2034.3866821375414 464.5786967820085L2034.3866821375414 464.5786967820085Q2048.8721409153422 464.5786967820085 2059.8620739262988 471.010464193001Q2070.824042731121 477.47019581012825 2076.7804186378225 488.5440214394893Q2082.70883033839 499.6178470688504 2082.70883033839 512.9008449828566L2082.70883033839 512.9008449828566Q2082.70883033839 526.3795923398063 2076.6685618132833 537.4534179691673Q2070.6282932881777 548.5272435985283 2059.6663244833553 554.9869752156555Q2048.676391472399 561.418742626648 2034.3866821375414 561.418742626648L2034.3866821375414 561.418742626648ZM2035.0018946725058 543.6894359372166Q2046.6629686306965 543.6894359372166 2053.402342309171 535.0484962415787Q2060.1696801937815 526.3795923398063 2060.1696801937815 513.2923438687433L2060.1696801937815 513.2923438687433Q2060.1696801937815 500.2050953976801 2052.898986598746 491.2565494345601Q2045.6562572098455 482.2800392653053 2033.7714696025769 482.2800392653053L2033.7714696025769 482.2800392653053Q2022.3061450873292 482.2800392653053 2015.371021965911 491.1446926100211Q2008.4079346383583 500.00934595473683 2008.4079346383583 513.2923438687433L2008.4079346383583 513.2923438687433Q2008.4079346383583 526.183842896863 2015.8743776763367 534.9366394170397Q2023.3128565081802 543.6894359372166 2035.0018946725058 543.6894359372166L2035.0018946725058 543.6894359372166Z " fill="#250ac8" transform="matrix(0.42012592188037157,0,0,0.42012592188037157,0,95.64288006252626)"/></g></svg>